<svg id="Layer_1" data-name="Layer 1" xmlns="http://www.w3.org/2000/svg" viewBox="0 0 1484.18 1738.42"><defs><style>.cls-1,.cls-10,.cls-11,.cls-12,.cls-13,.cls-14,.cls-15,.cls-16,.cls-17,.cls-18,.cls-19,.cls-2,.cls-20,.cls-21,.cls-22,.cls-23,.cls-3,.cls-4,.cls-5,.cls-6,.cls-7,.cls-8,.cls-9{fill:none;stroke-miterlimit:10;}.cls-1{stroke:#003285;stroke-width:2px;}.cls-2{stroke:#0c3682;stroke-width:2.14px;}.cls-3{stroke:#17397f;stroke-width:2.27px;}.cls-4{stroke:#233d7b;stroke-width:2.41px;}.cls-5{stroke:#2e4078;stroke-width:2.55px;}.cls-6{stroke:#3a4475;stroke-width:2.68px;}.cls-7{stroke:#464772;stroke-width:2.82px;}.cls-8{stroke:#514b6e;stroke-width:2.95px;}.cls-9{stroke:#5d4e6b;stroke-width:3.09px;}.cls-10{stroke:#685268;stroke-width:3.23px;}.cls-11{stroke:#745565;stroke-width:3.36px;}.cls-12{stroke:#805962;stroke-width:3.5px;}.cls-13{stroke:#8b5c5e;stroke-width:3.64px;}.cls-14{stroke:#975f5b;stroke-width:3.77px;}.cls-15{stroke:#a26358;stroke-width:3.91px;}.cls-16{stroke:#ae6655;stroke-width:4.05px;}.cls-17{stroke:#b96a51;stroke-width:4.18px;}.cls-18{stroke:#c56d4e;stroke-width:4.32px;}.cls-19{stroke:#d1714b;stroke-width:4.45px;}.cls-20{stroke:#dc7448;stroke-width:4.59px;}.cls-21{stroke:#e87844;stroke-width:4.73px;}.cls-22{stroke:#f37b41;stroke-width:4.86px;}.cls-23{stroke:#ff7f3e;stroke-width:5px;}</style></defs><path class="cls-1" d="M1563.6-109.26c-8.79,32.31-3.51,45.78,3.06,52.09,11.62,11.17,30,2.54,49,15.32,12.44,8.35,18.39,21.31,21.45,30.64" transform="translate(-153.9 141.76)"/><path class="cls-2" d="M1506.5-110.65c-4.84,8-9.94,17-9.69,24.91.33,10.19,7,14.76,12,24.19,7.62,14.61,14.36,29.72,18.19,41.15,4.71,14.06,4.89,17.31,13.43,22.89,7.79,5.1,21,9.71,42.39,21.42,18.76,10.28,33.34,26,48.63,37.85" transform="translate(-153.9 141.76)"/><path class="cls-3" d="M1449.4-112c-8.31,10.89-17.56,24.31-16.23,36,1.61,14,14.84,18,25.4,32.09,13.38,17.89,25.29,41.16,28.71,60.34,4,22.3-3.63,28,5,38.73,7.17,8.91,24.15,17.78,57.57,34.58,24.89,12.51,48.3,30.59,75.81,45.07" transform="translate(-153.9 141.76)"/><path class="cls-4" d="M1392.3-113.43c-11.77,13.8-25.23,31.64-22.77,47,2.86,17.87,22.42,21.42,38.84,40,18.94,21.43,36.3,52.6,39.22,79.54,3.3,30.56-11.94,38.42-3.32,54.56,6.72,12.57,27.21,26,72.74,47.74,31,14.82,63.25,35.22,103,52.28" transform="translate(-153.9 141.76)"/><path class="cls-5" d="M1335.2-114.83c-15.24,16.72-32.91,39-29.31,58.12,4.09,21.72,29.93,25,52.27,47.87,24.5,25.09,47.35,64.05,49.74,98.73,2.67,38.83-20.12,48.88-11.69,70.4,6.36,16.24,30.25,34.21,87.9,60.9,37.09,17.16,78.21,39.86,130.18,59.5" transform="translate(-153.9 141.76)"/><path class="cls-6" d="M1278.1-116.22c-18.7,19.63-40.6,46.31-35.85,69.18,5.31,25.58,37.41,28.65,65.71,55.77,30.06,28.8,58.4,75.51,60.25,117.93,2,47.11-28.22,59.36-20.06,86.23,6,19.93,33.27,42.5,103.07,74.06,43.17,19.51,93.17,44.49,157.36,66.71" transform="translate(-153.9 141.76)"/><path class="cls-7" d="M1221-117.61c-22.17,22.54-48.29,53.65-42.39,80.25,6.53,29.43,44.87,32.34,79.15,63.66,35.62,32.55,69.46,87,70.76,137.13,1.43,55.39-36.29,69.85-28.44,102.06,5.76,23.64,36.3,50.81,118.25,87.22,49.25,21.87,108.12,49.13,184.54,73.93" transform="translate(-153.9 141.76)"/><path class="cls-8" d="M1163.91-119c-25.64,25.45-56,61-48.94,91.32,7.75,33.29,52.32,36.05,92.58,71.55,41.19,36.33,80.53,98.44,81.28,156.32.81,63.69-44.33,80.37-36.81,117.9,5.49,27.36,39.31,59.13,133.42,100.37,55.32,24.25,123.07,53.77,211.72,81.15" transform="translate(-153.9 141.76)"/><path class="cls-9" d="M1106.81-120.4C1077.7-92,1043.12-52.06,1051.33-18c9,37.15,59.77,39.79,106,79.45,46.77,40.11,91.6,109.91,91.79,175.52.2,72-52.37,90.89-45.18,133.73,5.22,31.09,42.32,67.47,148.59,113.53,61.4,26.62,138,58.41,238.9,88.37" transform="translate(-153.9 141.76)"/><path class="cls-10" d="M1049.71-121.79c-32.57,31.28-71.39,75.68-62,113.46,10.17,41,67.22,43.54,119.45,87.34s102.67,121.38,102.3,194.71c-.4,80.27-60.39,101.43-53.54,149.57,4.95,34.83,45.32,75.81,163.76,126.69,67.48,29,153,63,266.08,95.58" transform="translate(-153.9 141.76)"/><path class="cls-11" d="M992.61-123.18c-36,34.2-79.1,83-68.56,124.53,11.39,44.87,74.67,47.29,132.89,95.23,57.93,47.71,113.74,132.86,112.81,213.91-1,88.56-68.42,112-61.92,165.4,4.7,38.57,48.34,84.17,178.93,139.85,73.57,31.37,167.94,67.68,293.27,102.8" transform="translate(-153.9 141.76)"/><path class="cls-12" d="M935.51-124.57C896-87.46,848.71-34.21,860.41,11c12.6,48.73,82.11,51.06,146.33,103.13,63.51,51.52,124.81,144.33,123.32,233.11-1.62,96.85-76.44,122.5-70.29,181.23,4.43,42.32,51.34,92.52,194.1,153,79.64,33.75,182.9,72.31,320.45,110" transform="translate(-153.9 141.76)"/><path class="cls-13" d="M878.41-126c-43,40-94.5,97.72-81.64,146.67,13.81,52.59,89.55,54.82,159.76,111,69.11,55.33,135.89,155.8,133.84,252.3-2.22,105.16-84.46,133.06-78.66,197.07,4.17,46.07,54.34,100.88,209.27,166.17,85.72,36.13,197.85,77,347.63,117.23" transform="translate(-153.9 141.76)"/><path class="cls-14" d="M821.31-127.36C774.88-84.42,719.11-22.3,733.13,30.38c15,56.45,97,58.59,173.2,118.91,74.69,59.14,147,167.27,144.35,271.5-2.83,113.45-92.48,143.6-87,212.9C967.56,683.51,1021,742.93,1188.09,813c91.8,38.5,212.81,81.59,374.81,124.44" transform="translate(-153.9 141.76)"/><path class="cls-15" d="M764.21-128.75c-49.9,45.85-109.9,112.4-94.72,168.8,16.23,60.32,104.44,62.37,186.63,126.81,80.29,63,158,178.75,154.87,290.69-3.44,121.75-100.5,154.16-95.41,228.74,3.66,53.58,60.34,117.61,239.62,192.49,97.88,40.88,227.76,86.22,402,131.66" transform="translate(-153.9 141.76)"/><path class="cls-16" d="M707.12-130.15C653.75-81.38,589.38-10.36,605.85,49.73c17.31,64.21,111.88,66.14,200.07,134.7C891.8,251.21,975.26,374.66,971.3,494.32,967.5,624.37,862.78,659,867.52,738.89c3.4,57.34,63.34,126,254.79,205.65,104,43.26,242.71,90.86,429.17,138.87" transform="translate(-153.9 141.76)"/><path class="cls-17" d="M650-131.54C593.18-79.86,524.59-4.41,542.21,59.41c18.54,68.07,119.33,69.91,213.5,142.59,91.47,70.6,180.38,201.7,175.9,329.09-4.44,138.35-116.53,175.27-112.15,260.4,3.15,61.1,66.34,134.35,270,218.81,110,45.64,257.68,95.49,456.36,146.08" transform="translate(-153.9 141.76)"/><path class="cls-18" d="M592.92-132.93c-60.3,54.59-133.11,134.46-114.36,202,19.78,71.93,126.78,73.7,227,150.49C802.57,294,896.93,432.74,891.92,567.85,886.84,714.5,767.37,753.68,771.4,844.09c2.89,64.86,69.19,143.07,285.12,232,116,48.21,272.63,100.13,483.54,153.3" transform="translate(-153.9 141.76)"/><path class="cls-19" d="M535.82-134.32C472.05-76.81,395,7.48,414.92,78.76c21,75.79,134.22,77.48,240.39,158.38C758,315.38,857.77,461.79,852.23,604.62,846.51,759.56,719.66,801,723.33,896.69c2.64,68.62,72.23,151.37,300.3,245.13,122.13,50.56,287.58,104.76,510.72,160.51" transform="translate(-153.9 141.76)"/><path class="cls-20" d="M478.72-135.72C411.49-75.29,330.23,13.43,351.28,88.44,373.52,168.08,493,169.7,605.1,254.72c108.25,82,213.51,236.11,207.44,386.66-6.37,163.24-140.58,207-137.27,307.91,2.38,72.38,75.25,159.68,315.47,258.29,128.22,52.9,302.54,109.4,537.9,167.73" transform="translate(-153.9 141.76)"/><path class="cls-21" d="M421.62-137.11c-70.69,63.34-156.17,156.49-134,235.22,23.46,83.51,149,85.27,267.26,174.18,113.69,86.08,224.55,247.58,218,405.86-7,171.54-148.45,217.5-145.64,323.74,2.23,76.14,78.28,168,330.64,271.45,134.32,55.24,317.49,114,565.08,174.94" transform="translate(-153.9 141.76)"/><path class="cls-22" d="M364.52-138.5C290.36-72.25,200.66,25.33,224,107.79c24.69,87.36,156.47,88.94,280.69,182.07,119.37,89.81,235.6,259.06,228.47,425.05-7.65,179.84-156.54,228.08-154,339.58,1.92,79.9,81.3,176.29,345.81,284.61,140.41,57.59,332.44,118.67,592.26,182.16" transform="translate(-153.9 141.76)"/><path class="cls-23" d="M307.43-139.89C229.8-70.73,135.87,31.28,160.36,117.47c25.92,91.22,164,92.61,294.13,190,125,93.53,246.63,270.53,239,444.25-8.29,188.13-164.63,238.64-162.38,355.41,2.46,128,194.68,296.32,980.42,487.14" transform="translate(-153.9 141.76)"/></svg>