<svg id="Layer_1" data-name="Layer 1" xmlns="http://www.w3.org/2000/svg" viewBox="0 0 900.49 877.79"><defs><style>.cls-1,.cls-10,.cls-11,.cls-12,.cls-13,.cls-14,.cls-15,.cls-16,.cls-17,.cls-18,.cls-19,.cls-2,.cls-20,.cls-21,.cls-22,.cls-23,.cls-24,.cls-25,.cls-26,.cls-27,.cls-28,.cls-29,.cls-3,.cls-30,.cls-4,.cls-5,.cls-6,.cls-7,.cls-8,.cls-9{fill:none;stroke-width:2px;}.cls-1{stroke:#003285;}.cls-1,.cls-10,.cls-11,.cls-12,.cls-13,.cls-14,.cls-15,.cls-16,.cls-17,.cls-18,.cls-19,.cls-2,.cls-20,.cls-21,.cls-22,.cls-23,.cls-24,.cls-25,.cls-26,.cls-27,.cls-28,.cls-29,.cls-3,.cls-30,.cls-5,.cls-6,.cls-7,.cls-8,.cls-9{stroke-miterlimit:10;}.cls-2{stroke:#093583;}.cls-3{stroke:#123780;}.cls-4{stroke:#1a3a7e;stroke-miterlimit:10;}.cls-5{stroke:#233d7b;}.cls-6{stroke:#2c3f79;}.cls-7{stroke:#354276;}.cls-8{stroke:#3e4574;}.cls-9{stroke:#464771;}.cls-10{stroke:#4f4a6f;}.cls-11{stroke:#584d6d;}.cls-12{stroke:#614f6a;}.cls-13{stroke:#6a5268;}.cls-14{stroke:#725565;}.cls-15{stroke:#7b5763;}.cls-16{stroke:#845a60;}.cls-17{stroke:#8d5c5e;}.cls-18{stroke:#955f5b;}.cls-19{stroke:#9e6259;}.cls-20{stroke:#a76456;}.cls-21{stroke:#b06754;}.cls-22{stroke:#b96a52;}.cls-23{stroke:#c16c4f;}.cls-24{stroke:#ca6f4d;}.cls-25{stroke:#d3724a;}.cls-26{stroke:#dc7448;}.cls-27{stroke:#e57745;}.cls-28{stroke:#ed7a43;}.cls-29{stroke:#f67c40;}.cls-30{stroke:#ff7f3e;}</style></defs><path class="cls-1" d="M589.3,701.25c-.77-20.22-18.7-30-13.5-49.82,3.37-12.84,13.92-20.2,15.42-21.21,25.08-17,51.78,11.91,79.47,1.84,33.71-12.26,21-64.83,56.56-83.73,33.27-17.68,89.65,4.21,95.94,30.84,6.37,27-41.57,46.05-36.31,81.16,3.25,21.61,24.51,35,39.22,44.19,59.86,37.57,114.73,11.92,126,34.86,10,20.29-19.39,68-58.65,78.43-50.74,13.43-91.52-42.53-117.64-25.54-25.51,16.59,5.75,75-23.61,100.12C726.15,914.7,664,901,646.13,868.78c-13.78-24.81,7.35-45-7.16-67.1-20.8-31.64-81.23-15.87-87.1-36.31C546.82,747.83,590.53,733.35,589.3,701.25Z" transform="translate(-301.06 -331.61)"/><path class="cls-2" d="M793.1,661.57c2.24,22.63,23.63,37.62,38.43,48,60.24,42.21,118.62,18.44,129.11,42.88,9.29,21.61-23.74,69.69-65.09,78.42-53.43,11.28-92.87-49-120.91-32.75-27.39,15.91,2,78.21-29.82,102.82-28.25,21.81-92.11,4.27-109-30.14-13-26.51,10-46.41-3.9-70.11-19.95-34-83.58-20.78-88.61-42.33-4.32-18.5,41.87-31.24,42.29-64.67.26-21.06-17.86-32.18-11.41-52.49,4.18-13.17,15.53-20.26,17.15-21.23,27-16.32,53.18,15.11,82.49,6.1,35.69-11,25.22-66.27,63.2-84,35.51-16.62,93,9.1,98.09,37.11C840.32,607.48,789.48,624.8,793.1,661.57Z" transform="translate(-301.06 -331.61)"/><path class="cls-3" d="M799.32,662.81c1.22,23.65,22.75,40.29,37.65,51.8,60.6,46.83,122.49,24.95,132.22,50.89,8.61,22.94-28.09,71.34-71.53,78.41C841.52,853,803.43,788.38,773.47,804c-29.27,15.21-1.71,81.46-36,105.5-30.45,21.32-96,0-111.92-36.65-12.25-28.21,12.67-47.8-.65-73.13-19.1-36.33-85.94-25.69-90.12-48.35-3.59-19.45,45.07-30.46,47.14-65.22,1.3-21.89-17-34.34-9.31-55.16,5-13.49,17.15-20.32,18.87-21.25C620.29,594,646.05,628,677,620.06c37.65-9.67,29.45-67.71,69.83-84.35,37.75-15.56,96.26,14,100.24,43.39C851.08,608.84,797.34,624.38,799.32,662.81Z" transform="translate(-301.06 -331.61)"/><path class="cls-4" d="M805.54,664.05c.21,24.67,21.87,43,36.86,55.6,61,51.47,126.38,31.48,135.34,58.91,7.93,24.26-32.44,73-78,78.4-58.84,7-95.59-62-127.48-47.16-31.14,14.52-5.43,84.71-42.23,108.2-32.65,20.82-99.95-4.36-114.85-43.18-11.48-29.91,15.34-49.18,2.61-76.14-18.25-38.67-88.3-30.6-91.63-54.37-2.87-20.41,48.28-29.69,52-65.77C580.52,655.81,562,642,571,620.71c5.8-13.82,18.76-20.38,20.6-21.28,30.72-15,56,21.51,88.55,14.63,39.62-8.37,33.7-69.15,76.47-84.66,40-14.5,99.57,18.89,102.39,49.66C861.83,610.2,805.21,624,805.54,664.05Z" transform="translate(-301.06 -331.61)"/><path class="cls-5" d="M811.77,665.29c-.81,25.69,21,45.62,36.06,59.41,61.35,56.1,130.27,38,138.46,66.91,7.25,25.59-36.79,74.65-84.42,78.4-61.54,4.84-96.94-68.52-130.75-54.37-33,13.83-9.15,88-48.44,110.89-34.85,20.33-103.87-8.67-117.77-49.7-10.72-31.61,18-50.56,5.86-79.15-17.4-41-90.65-35.51-93.14-60.39-2.14-21.37,51.49-28.91,56.85-66.32,3.37-23.56-15.32-38.67-5.12-60.5,6.61-14.15,20.37-20.44,22.32-21.3,32.61-14.35,57.41,24.71,91.58,18.89,41.6-7.08,37.94-70.59,83.12-85C808.6,509.65,869.24,546.87,870.9,579,872.59,611.56,813.07,623.55,811.77,665.29Z" transform="translate(-301.06 -331.61)"/><path class="cls-6" d="M818,666.53c-1.82,26.71,20.1,48.28,35.27,63.21,61.73,60.74,134.15,44.51,141.58,74.93,6.57,26.91-41.14,76.31-90.86,78.39-64.25,2.7-98.3-75-134-61.57-34.9,13.13-12.88,91.21-54.65,113.58-37,19.83-107.79-13-120.7-56.22-10-33.32,20.67-51.94,9.13-82.17-16.56-43.36-93-40.41-94.66-66.42-1.41-22.32,54.7-28.12,61.7-66.86,4.41-24.4-14.47-40.84-3-63.17,7.42-14.48,22-20.5,24-21.32,34.48-13.7,58.81,27.91,94.6,23.15,43.57-5.78,42.19-72,89.76-85.28,44.47-12.38,106.16,28.68,106.67,62.2C883.35,612.92,820.94,623.13,818,666.53Z" transform="translate(-301.06 -331.61)"/><path class="cls-7" d="M824.21,667.77c-2.83,27.73,19.22,51,34.48,67,62.1,65.37,138,51,144.7,82.94,5.89,28.24-45.49,78-97.3,78.38-67,.55-99.66-81.52-137.31-68.78C732,839.77,752.17,921.79,707.92,943.6c-39.25,19.34-111.71-17.29-123.62-62.74-9.19-35,23.32-53.32,12.38-85.19C581,750,501.3,750.36,500.51,723.24c-.69-23.28,57.91-27.35,66.55-67.41,5.45-25.23-13.62-43-.93-65.84,8.24-14.81,23.6-20.56,25.78-21.34,36.37-13,60.22,31.1,97.64,27.41,45.54-4.49,46.42-73.48,96.39-85.59C832.65,499.15,895.41,544,894.76,579,894.1,614.27,828.8,622.71,824.21,667.77Z" transform="translate(-301.06 -331.61)"/><path class="cls-8" d="M830.43,669c-3.84,28.75,18.34,53.62,33.7,70.82,62.47,70,141.91,57.55,147.81,91,5.21,29.56-49.85,79.61-103.74,78.37-69.66-1.6-101-88-140.6-76-38.65,11.75-20.33,97.72-67.06,119C659.09,971,584.92,930.53,574,882.88c-8.41-36.72,26-54.71,15.64-88.21-14.85-48-97.73-50.22-97.68-78.45,0-24.23,61.12-26.57,71.41-68,6.48-26.07-12.78-45.17,1.16-68.51,9-15.13,25.22-20.62,27.51-21.36,38.24-12.39,61.63,34.3,100.66,31.68,47.51-3.2,50.67-74.93,103-85.91,48.95-10.26,112.77,38.47,111,74.75C904.86,615.63,836.67,622.29,830.43,669Z" transform="translate(-301.06 -331.61)"/><path class="cls-9" d="M836.65,670.24c-4.86,29.78,17.46,56.29,32.91,74.64,62.84,74.64,145.8,64.06,150.92,99,4.54,30.88-54.19,81.26-110.18,78.36C838,918.47,807.93,827.7,766.43,839c-40.53,11.05-24.06,101-73.27,121.65C649.51,979,573.62,934.76,563.69,884.89c-7.65-38.42,28.65-56.09,18.89-91.22-14-50.37-100.09-55.13-99.19-84.47.77-25.19,64.33-25.79,76.26-68.51,7.52-26.91-11.93-47.34,3.26-71.18,9.85-15.46,26.83-20.68,29.23-21.38,40.13-11.74,63,37.5,103.69,35.94,49.49-1.9,54.91-76.37,109.67-86.22,51.19-9.2,116.08,43.36,113.11,81C915.62,617,844.53,621.87,836.65,670.24Z" transform="translate(-301.06 -331.61)"/><path class="cls-10" d="M842.87,671.48c-5.87,30.81,16.58,59,32.12,78.44,63.22,79.27,149.68,70.59,154,107,3.86,32.2-58.54,82.91-116.62,78.35-75.06-5.89-103.73-101-147.15-90.4-42.41,10.36-27.79,104.22-79.48,124.35C639.93,987.06,562.32,939,553.38,886.9c-6.88-40.12,31.32-57.47,22.15-94.23-13.15-52.72-102.44-60-100.7-90.5,1.49-26.14,67.54-25,81.12-69,8.55-27.74-11.09-49.51,5.35-73.85,10.66-15.79,28.44-20.74,31-21.4,42-11.08,64.45,40.69,106.72,40.2,51.46-.61,59.16-77.82,116.31-86.53,53.43-8.14,119.38,48.25,115.26,87.3C926.37,618.35,852.39,621.45,842.87,671.48Z" transform="translate(-301.06 -331.61)"/><path class="cls-11" d="M849.09,672.72c-6.88,31.83,15.7,61.62,31.33,82.25,63.59,83.9,153.57,77.1,157.16,115,3.18,33.52-62.89,84.56-123.06,78.34-77.77-8-105.09-107.51-150.43-97.61-44.29,9.67-31.52,107.47-85.69,127-48,17.36-127.38-34.54-135.32-88.82-6.12-41.83,34-58.86,25.4-97.25-12.3-55.06-104.8-64.95-102.21-96.52,2.22-27.1,70.75-24.23,86-69.6C561.83,597,542,573.88,559.69,549c11.47-16.12,30-20.8,32.68-21.43,43.89-10.42,65.85,43.9,109.74,44.47,53.43.69,63.4-79.26,122.95-86.83,55.67-7.09,122.68,53.14,117.41,93.56C937.13,619.71,860.26,621,849.09,672.72Z" transform="translate(-301.06 -331.61)"/><path class="cls-12" d="M855.31,674c-7.89,32.85,14.82,64.29,30.55,86,64,88.54,157.44,83.62,160.27,123,2.5,34.85-67.24,86.22-129.51,78.33-80.46-10.18-106.44-114-153.7-104.81-46.17,9-35.24,110.72-91.9,129.73-50.25,16.86-131.3-38.86-138.25-95.35-5.35-43.52,36.64-60.24,28.66-100.26C550,733.27,454.27,720.81,457.71,688.13c3-28.06,74-23.45,90.82-70.15,10.63-29.41-9.39-53.84,9.55-79.19,12.28-16.44,31.66-20.86,34.4-21.45,45.78-9.77,67.27,47.1,112.78,48.73,55.4,2,67.64-80.7,129.59-87.14,57.9-6,126,58,119.55,99.83C947.89,621.07,868.12,620.61,855.31,674Z" transform="translate(-301.06 -331.61)"/><path class="cls-13" d="M861.53,675.2c-8.9,33.87,13.94,67,29.76,89.86,64.33,93.17,161.33,90.14,163.39,131,1.82,36.17-71.59,87.87-136,78.32-83.17-12.33-107.79-120.5-157-112-48,8.29-39,114-98.1,132.42C611.19,1011.18,528.42,951.65,522.46,893c-4.58-45.23,39.31-61.63,31.92-103.29-10.59-59.74-109.51-74.76-105.23-108.55,3.68-29,77.17-22.67,95.68-70.7,11.66-30.25-8.55-56,11.64-81.86,13.09-16.77,33.28-20.92,36.13-21.47,47.65-9.11,68.67,50.3,115.8,53,57.37,3.28,71.88-82.14,136.23-87.45,60.15-5,129.28,62.93,121.69,106.1C958.64,622.42,876,620.19,861.53,675.2Z" transform="translate(-301.06 -331.61)"/><path class="cls-14" d="M867.75,676.44c-9.92,34.89,13.07,69.62,29,93.66,64.71,97.81,165.21,96.66,166.51,139,1.14,37.49-76,89.52-142.39,78.31C835,973,811.69,860.46,760.57,868.23c-49.92,7.6-42.69,117.22-104.31,135.12-54.65,15.87-139.14-47.48-144.1-108.39-3.82-46.93,42-63,35.17-106.3C537.59,726.58,435.46,709,440.59,674.08c4.4-30,80.38-21.89,100.53-71.24,12.7-31.08-7.7-58.17,13.74-84.54,13.9-17.09,34.89-21,37.85-21.48,49.54-8.46,70.08,53.49,118.83,57.25,59.35,4.58,76.13-83.58,142.87-87.76C916.8,462.4,987,534.13,978.25,578.69,969.4,623.78,883.85,619.78,867.75,676.44Z" transform="translate(-301.06 -331.61)"/><path class="cls-15" d="M874,677.68C863,713.59,886.16,750,902.15,775.15c65.08,102.44,169.1,103.17,169.62,147.06.47,38.81-80.29,91.17-148.83,78.31C834.37,983.89,812.44,867,759.4,874.08,707.6,881,713,994.55,648.88,1011.88,592,1027.26,505.82,960.09,501.85,897c-3.05-48.63,44.63-64.39,38.43-109.31-8.89-64.42-114.22-84.58-108.25-120.6,5.13-30.92,83.58-21.11,105.38-71.79,13.74-31.92-6.85-60.34,15.84-87.21,14.71-17.42,36.5-21,39.58-21.5,51.41-7.81,71.48,56.69,121.85,61.51C776,554,795.05,463,864.19,460c64.63-2.85,135.89,72.71,126,118.65C980.16,625.14,891.72,619.36,874,677.68Z" transform="translate(-301.06 -331.61)"/><path class="cls-16" d="M880.19,678.92c-11.94,36.93,11.31,75,27.39,101.27,65.46,107.07,173,109.69,172.74,155.07-.21,40.15-84.64,92.83-155.27,78.31-91.28-18.78-111.86-140-166.82-133.65-53.68,6.21-50.15,123.72-116.73,140.5-59,14.87-147-56.1-149.95-121.43-2.29-50.34,47.29-65.78,41.68-112.33-8-66.77-116.58-89.48-109.76-126.62,5.86-31.88,86.79-20.33,110.24-72.34,14.77-32.75-6-62.5,17.93-89.88,15.52-17.75,38.11-21.1,41.3-21.52,53.3-7.15,72.9,59.89,124.89,65.78,63.29,7.16,84.61-86.48,156.14-88.39,66.87-1.79,139.2,77.61,128.14,124.92C990.91,626.5,899.58,618.94,880.19,678.92Z" transform="translate(-301.06 -331.61)"/><path class="cls-17" d="M886.41,680.16c-12.95,38,10.43,77.62,26.61,105.08,65.82,111.7,176.86,116.21,175.85,163.08-.89,41.47-89,94.49-161.71,78.3-94-20.93-113.22-146.5-170.1-140.86-55.56,5.52-53.88,127-122.94,143.19-61.25,14.38-150.9-60.41-152.88-128-1.52-52,50-67.16,44.94-115.34C519,716.55,407.24,691.27,414.91,653c6.58-32.84,90-19.56,115.09-72.89,15.8-33.59-5.15-64.67,20-92.55,16.33-18.07,39.72-21.16,43-21.54,55.18-6.5,74.3,63.08,127.91,70,65.26,8.46,88.85-87.92,162.78-88.7,69.11-.73,142.5,82.5,130.28,131.19C1001.67,627.86,907.44,618.52,886.41,680.16Z" transform="translate(-301.06 -331.61)"/><path class="cls-18" d="M892.63,681.4c-14,39,9.55,80.29,25.82,108.88,66.2,116.34,180.74,122.73,179,171.1-1.57,42.79-93.34,96.14-168.16,78.29-96.68-23.07-114.57-153-173.38-148.06-57.43,4.82-57.6,130.22-129.14,145.88-63.45,13.88-154.82-64.73-155.8-134.48-.76-53.73,52.62-68.53,48.2-118.35-6.35-71.45-121.3-99.3-112.79-138.66,7.31-33.79,93.21-18.78,119.94-73.44,16.84-34.43-4.3-66.83,22.13-95.22,17.14-18.4,41.34-21.22,44.75-21.57,57.06-5.84,75.71,66.29,130.94,74.31,67.23,9.76,93.1-89.36,169.42-89,71.35.33,145.8,87.4,132.43,137.47C1012.43,629.22,915.31,618.1,892.63,681.4Z" transform="translate(-301.06 -331.61)"/><path class="cls-19" d="M898.85,682.64c-15,40,8.67,83,25,112.69,66.57,121,184.63,129.24,182.09,179.11-2.25,44.11-97.69,97.79-174.6,78.28C832,1027.5,815.44,893.22,754.71,897.45c-59.31,4.13-61.33,133.47-135.35,148.57-65.65,13.39-158.74-69-158.73-141,0-55.44,55.29-69.92,51.46-121.38-5.5-73.78-123.66-104.2-114.3-144.68,8-34.74,96.42-18,124.8-74,17.87-35.26-3.46-69,24.22-97.89,17.94-18.73,43-21.28,46.48-21.59,58.94-5.18,77.11,69.49,134,78.57,69.21,11,97.34-90.8,176.06-89.32,73.59,1.39,149.11,92.29,134.58,143.74C1023.18,630.57,923.17,617.68,898.85,682.64Z" transform="translate(-301.06 -331.61)"/><path class="cls-20" d="M905.07,683.88c-16,41,7.79,85.62,24.24,116.49,67,125.61,188.51,135.77,185.21,187.13-2.93,45.44-102,99.44-181,78.27-102.09-27.37-117.29-166-179.94-162.48-61.19,3.44-65,136.73-141.56,151.27C544.13,1067.45,449.32,981.21,450.33,907c.77-57.14,57.94-71.3,54.71-124.39C500.4,706.52,379,673.54,389.23,632c8.77-35.7,99.63-17.21,129.65-74.53,18.91-36.1-2.61-71.17,26.32-100.56,18.75-19.06,44.56-21.34,48.2-21.61,60.82-4.53,78.52,72.69,137,82.83,71.17,12.35,101.58-92.25,182.7-89.63,75.83,2.45,152.4,97.18,136.72,150C1033.94,631.93,931,617.26,905.07,683.88Z" transform="translate(-301.06 -331.61)"/><path class="cls-21" d="M911.29,685.12c-17,42,6.91,88.28,23.46,120.3,67.31,130.24,192.39,142.28,188.31,195.14-3.6,46.76-106.39,101.09-187.48,78.26-104.79-29.51-118.64-172.49-183.21-169.68-63.07,2.74-68.78,140-147.77,153.95-70.05,12.4-166.58-77.66-164.58-154,1.54-58.85,60.61-72.69,58-127.41-3.79-78.47-128.37-114-117.32-156.72,9.49-36.66,102.84-16.44,134.51-75.08,19.94-36.93-1.77-73.33,28.41-103.23,19.56-19.38,46.17-21.4,49.92-21.63,62.71-3.87,79.94,75.88,140,87.09,73.15,13.64,105.82-93.69,189.34-89.94,78.07,3.51,155.71,102.08,138.86,156.29C1044.7,633.29,938.9,616.84,911.29,685.12Z" transform="translate(-301.06 -331.61)"/><path class="cls-22" d="M917.51,686.36c-18,43,6,90.95,22.67,124.1,67.69,134.87,196.27,148.8,191.43,203.16-4.28,48.08-110.74,102.75-193.92,78.25-107.49-31.66-120-179-186.49-176.89-65,2-72.51,143.23-154,156.65-72.25,11.9-170.5-82-167.5-160.56C432,850.53,493,837,490.94,780.65,488,699.84,360.21,661.72,372.11,617.91c10.22-37.62,106.05-15.66,139.36-75.62,21-37.78-.92-75.51,30.51-105.91,20.37-19.71,47.78-21.46,51.65-21.65,64.58-3.22,81.34,79.08,143,91.35C811.8,521,846.75,411,932.66,415.84c80.31,4.56,159,107,141,162.55C1055.45,634.65,946.77,616.42,917.51,686.36Z" transform="translate(-301.06 -331.61)"/><path class="cls-23" d="M923.73,687.6c-19,44.07,5.15,93.61,21.88,127.9,68.06,139.51,200.16,155.33,194.55,211.18-5,49.4-115.09,104.4-200.36,78.24C829.6,1071.11,818.44,919.43,750,920.82c-66.83,1.36-76.23,146.48-160.18,159.34-74.45,11.41-174.42-86.28-170.43-167.08,3.08-62.24,65.94-75.45,64.48-133.43-2.09-83.16-133.08-123.84-120.34-168.77C374.5,572.32,472.81,596,507.76,534.72c22-38.61-.07-77.67,32.61-108.58,21.18-20,49.4-21.52,53.37-21.67,66.47-2.57,82.75,82.28,146.08,95.61,77.1,16.24,114.31-96.57,202.62-90.55,82.55,5.62,162.32,111.85,143.16,168.82C1066.21,636,954.63,616,923.73,687.6Z" transform="translate(-301.06 -331.61)"/><path class="cls-24" d="M930,688.84c-20,45.09,4.27,96.28,21.09,131.71,68.44,144.14,204,161.84,197.67,219.19-5.64,50.72-119.44,106-206.81,78.23-112.9-36-122.71-192-193-191.3-68.71.67-80,149.72-166.39,162-76.65,10.91-178.34-90.6-173.35-173.6,3.84-64,68.59-76.84,67.73-136.45C475.6,693.15,341.4,649.9,355,603.86c11.67-39.52,112.47-14.1,149.07-76.71,23.05-39.45.77-79.84,34.69-111.25,22-20.37,51-21.58,55.11-21.69C662.21,392.3,678,479.68,743,494.08c79.07,17.53,118.56-98,209.26-90.86C1037,409.9,1117.84,520,1097.53,578.31,1077,637.37,962.49,615.59,930,688.84Z" transform="translate(-301.06 -331.61)"/><path class="cls-25" d="M936.17,690.08c-21,46.11,3.39,98.95,20.3,135.51C1025.28,974.37,1164.4,994,1157.26,1052.8c-6.32,52-123.79,107.7-213.25,78.22-115.6-38.1-124.07-198.48-196.33-198.51-70.59,0-83.69,153-172.6,164.72-78.85,10.42-182.26-94.91-176.28-180.12,4.61-65.65,71.26-78.22,71-139.47C469.4,689.81,332,644,346.43,596.84c12.4-40.48,115.68-13.32,153.92-77.26,24.09-40.28,1.62-82,36.79-113.92C560,385,589.77,384,594,383.94c70.23-1.25,85.57,88.68,152.14,104.15,81,18.82,122.79-99.47,215.89-91.18,87,7.74,168.92,121.64,147.45,181.37C1087.72,638.73,970.36,615.17,936.17,690.08Z" transform="translate(-301.06 -331.61)"/><path class="cls-26" d="M942.39,691.32c-22.06,47.13,2.51,101.61,19.52,139.32,69.18,153.41,211.81,174.88,203.9,235.21-7,53.38-128.14,109.36-219.69,78.22-118.31-40.24-125.42-205-199.61-205.72-72.47-.71-87.42,156.23-178.81,167.42-81.05,9.92-186.18-99.23-179.21-186.64,5.38-67.36,73.93-79.61,74.25-142.49.46-90.17-140.15-138.55-124.87-186.82C351,548.38,456.75,577.28,496.64,512c25.13-41.12,2.47-84.17,38.89-116.59,23.62-21,54.24-21.7,58.56-21.74,72.11-.6,87,91.88,155.16,108.41,83,20.12,127-100.91,222.53-91.49,89.27,8.8,172.23,126.54,149.6,187.64C1098.48,640.08,978.22,614.75,942.39,691.32Z" transform="translate(-301.06 -331.61)"/><path class="cls-27" d="M948.61,692.55c-23.07,48.16,1.63,104.29,18.73,143.13,69.55,158.05,215.69,181.4,207,243.23-7.67,54.7-132.49,111-226.12,78.21-121-42.39-126.78-211.48-202.9-212.92-74.34-1.41-91.13,159.48-185,170.1-83.26,9.43-190.1-103.53-182.13-193.16,6.14-69,76.59-81,77.5-145.5C457,683.12,313.18,632.18,329.32,582.79,343.16,540.4,451.4,571,492.94,504.44c26.16-42,3.31-86.34,41-119.26,24.43-21.35,55.85-21.76,60.28-21.76,74,.06,88.38,95.08,158.19,112.67,85,21.41,131.28-102.35,229.18-91.8,91.51,9.86,175.52,131.43,151.74,193.91C1109.24,641.44,986.09,614.33,948.61,692.55Z" transform="translate(-301.06 -331.61)"/><path class="cls-28" d="M954.83,693.79c-24.08,49.18.75,107,17.94,146.94,69.93,162.68,219.58,187.91,210.13,251.24-8.35,56-136.84,112.67-232.57,78.2C826.62,1125.63,822.2,952.19,744.16,950c-76.22-2.1-94.86,162.73-191.22,172.8-85.46,8.93-194-107.85-185.06-199.69,6.91-70.75,79.25-82.37,80.76-148.51,2.17-94.86-144.86-148.37-127.88-198.87,14.57-43.34,125.29-11,168.47-78.9,27.2-42.79,4.16-88.51,43.08-121.93,25.24-21.68,57.47-21.82,62-21.78,75.87.71,89.78,98.27,161.21,116.93,87,22.71,135.53-103.79,235.82-92.11,93.75,10.92,178.83,136.32,153.89,200.19C1120,642.8,994,613.91,954.83,693.79Z" transform="translate(-301.06 -331.61)"/><path class="cls-29" d="M961.05,695c-25.09,50.2-.13,109.62,17.15,150.74,70.31,167.31,223.46,194.44,213.25,259.26-9,57.35-141.19,114.32-239,78.19C826,1136.54,823,958.74,743,955.88c-78.1-2.79-98.59,166-197.43,175.49-87.66,8.44-197.94-112.16-188-206.2,7.67-72.46,81.91-83.76,84-151.53,3-97.2-147.22-153.28-129.39-204.89,15.3-44.3,128.5-10.2,173.32-79.45,28.24-43.63,5-90.67,45.18-124.6,26-22,59.08-21.88,63.73-21.8,77.75,1.36,91.2,101.47,164.25,121.19,88.92,24,139.76-105.23,242.45-92.42,96,12,182.13,141.22,156,206.46C1130.75,644.16,1001.82,613.49,961.05,695Z" transform="translate(-301.06 -331.61)"/><path class="cls-30" d="M481.82,481.73c29.27-44.46,5.85-92.84,47.27-127.28,26.86-22.32,60.69-21.93,65.46-21.81,79.63,2,92.6,104.67,167.27,125.45,90.9,25.3,144-106.68,249.09-92.73,98.23,13,185.44,146.11,158.18,212.73-27.58,67.43-159.41,35-201.82,118.18-26.1,51.22-1,112.29,16.37,154.55,70.67,171.94,227.34,200.95,216.36,267.27-9.71,58.67-145.54,116-245.45,78.18-129.12-48.83-130.85-231-212.73-234.54-80-3.49-102.32,169.23-203.64,178.18-89.86,7.94-201.86-116.47-190.91-212.73,8.44-74.16,84.58-85.13,87.28-154.54C438.41,673.09,285,614.45,303.64,561.73,319.67,516.47,435.35,552.31,481.82,481.73Z" transform="translate(-301.06 -331.61)"/></svg>