<svg id="Layer_1" data-name="Layer 1" xmlns="http://www.w3.org/2000/svg" viewBox="0 0 866.32 903.98"><defs><style>.cls-1,.cls-10,.cls-11,.cls-12,.cls-13,.cls-14,.cls-15,.cls-16,.cls-17,.cls-18,.cls-19,.cls-2,.cls-20,.cls-21,.cls-22,.cls-23,.cls-24,.cls-25,.cls-26,.cls-27,.cls-28,.cls-29,.cls-3,.cls-30,.cls-4,.cls-5,.cls-6,.cls-7,.cls-8,.cls-9{fill:none;stroke-width:2px;}.cls-1{stroke:#ff7f3e;}.cls-1,.cls-10,.cls-11,.cls-12,.cls-13,.cls-14,.cls-15,.cls-16,.cls-17,.cls-18,.cls-19,.cls-2,.cls-20,.cls-21,.cls-22,.cls-23,.cls-24,.cls-25,.cls-26,.cls-27,.cls-28,.cls-29,.cls-3,.cls-30,.cls-4,.cls-6,.cls-7,.cls-8,.cls-9{stroke-miterlimit:10;}.cls-2{stroke:#003285;}.cls-3{stroke:#093583;}.cls-4{stroke:#123780;}.cls-5{stroke:#1a3a7e;stroke-miterlimit:10;}.cls-6{stroke:#233d7b;}.cls-7{stroke:#2c3f79;}.cls-8{stroke:#354276;}.cls-9{stroke:#3e4574;}.cls-10{stroke:#464771;}.cls-11{stroke:#4f4a6f;}.cls-12{stroke:#584d6d;}.cls-13{stroke:#614f6a;}.cls-14{stroke:#6a5268;}.cls-15{stroke:#725565;}.cls-16{stroke:#7b5763;}.cls-17{stroke:#845a60;}.cls-18{stroke:#8d5c5e;}.cls-19{stroke:#955f5b;}.cls-20{stroke:#9e6259;}.cls-21{stroke:#a76456;}.cls-22{stroke:#b06754;}.cls-23{stroke:#b96a52;}.cls-24{stroke:#c16c4f;}.cls-25{stroke:#ca6f4d;}.cls-26{stroke:#d3724a;}.cls-27{stroke:#dc7448;}.cls-28{stroke:#e57745;}.cls-29{stroke:#ed7a43;}.cls-30{stroke:#f67c40;}</style></defs><path class="cls-1" d="M696.36,318.09c57.84-39,35.78-102.41,80-129.09,74.42-44.9,269.26,54.91,285.46,176.36,13.24,99.27-102.36,141.73-85.46,240,17.75,103.13,155.17,115.57,170.91,207.28,15.47,90.12-71,203.62-169.09,232.72-94.21,28-150-36.49-274.54-60C484.4,944,348.25,1121.57,298.18,1070.82c-43.29-43.89,24.65-196,110.91-289.09C481.78,703.31,559,715.25,570.91,669,589.19,597.8,357,564,323.64,427.18c-14.95-61.34-2.7-136.41,34.54-154.54,38.81-18.9,74.73,38.1,183.64,58.18C585.33,338.84,648.32,350.46,696.36,318.09Z" transform="translate(-283.76 -177.04)"/><path class="cls-2" d="M662.91,568.89c1.69-21.56-18-28.43-15.92-44.31,3.44-26.73,65.23-54.8,97.85-35.32,26.65,15.92,14.68,52.17,41.8,67,28.47,15.57,58-15.4,83.28-1.55,24.87,13.62,35.76,56.5,23.92,85.92-11.38,28.27-37.78,29.41-67.49,55.11C774,741,790.92,808.3,768.94,810.68c-19,2.05-42.85-43.78-48.82-82.66-5-32.77,12.76-49.23,3.82-61-13.77-18.16-66.73,31.72-106.38,13.44-17.78-8.2-33.65-25.64-30.87-38.18,2.89-13.07,23.65-10.8,49.52-33.38C646.55,599.85,661.51,586.8,662.91,568.89Z" transform="translate(-283.76 -177.04)"/><path class="cls-3" d="M873.59,556.47c24.67,16.63,39.88,58.53,29,90.11-10.45,30.39-39.13,35.16-71,61.22-54.1,44.25-39.35,107.88-64.89,108.9-25.89,1-53.63-37.57-61.12-76.86-6.35-33.15,14-54.65,7.51-68.89C703.53,650.1,652.92,701,616,680c-17-9.61-40.39-28.43-38.33-45.2,1.81-14.79,22.57-15.34,49-37.55,11.25-9.45,28.24-19.67,32.12-36.6,4.63-20.25-13.49-26.73-10-43.22,5.64-27.08,63.85-55.74,97.23-38.56,28,14.42,23.27,52.56,50.21,70.79C823.87,568.45,848.62,539.63,873.59,556.47Z" transform="translate(-283.76 -177.04)"/><path class="cls-4" d="M877.26,558.22c24.47,19.67,44,60.56,34.06,94.29-9.53,32.53-40.44,40.93-74.5,67.35-55.81,43.28-43.33,103-72.38,102.86-32.83-.14-64.41-31.36-73.42-71.06-7.67-33.53,15.31-59.68,11.21-76.75-5.53-23-53.72,28-87.89,4.73-16.34-11.15-47-31.15-45.8-52.22,1-16.46,21.53-19.85,48.5-41.74,12.16-9.87,31-16.8,37.52-33.21,7.37-18.64-9-25-4.17-42.13,7.78-27.41,62.58-56.72,96.62-41.79,29.46,12.92,31.82,52.87,58.61,74.56C832.62,565,852.63,538.42,877.26,558.22Z" transform="translate(-283.76 -177.04)"/><path class="cls-5" d="M880.93,560c24.27,22.73,48.11,62.6,39.13,98.48-8.6,34.66-41.73,46.72-78,73.47-57.46,42.38-47.3,98-79.86,96.84-39.77-1.41-75.19-25.16-85.72-65.27-9-33.92,16.42-64.45,14.9-84.62-1.87-24.8-47.3,25.76-78.64.38-15.81-12.8-53.51-33.83-53.26-59.24.19-18.09,20.52-24.32,48-45.91,13.09-10.29,30.41-15.85,42.93-29.83,6-18.49-4.6-23.27,1.71-41,9.85-27.73,61.41-57.77,96-45,31,11.42,40.38,53.11,67,78.32C841.39,561.41,856.64,537.22,880.93,560Z" transform="translate(-283.76 -177.04)"/><path class="cls-6" d="M884.6,561.71c24.07,25.79,52.23,64.64,44.19,102.66-7.67,36.8-43,52.53-81.5,79.6-59.07,41.51-51.28,92.92-87.36,90.8-46.7-2.74-85.95-18.95-98-59.47-10.31-34.3,17.3-69.13,18.59-92.48,1.47-26.5-40.85,23.14-69.39-4-15.36-14.59-59.94-36.51-60.72-66.27-.51-19.72,19.53-28.76,47.46-50.09,14-10.7,32.12-13.77,48.35-26.44,7.46-17.47-.21-21.53,7.59-39.95,11.86-28,60.32-58.89,95.38-48.26,32.63,9.89,49,53.3,75.42,82.1C850.18,557.8,860.64,536,884.6,561.71Z" transform="translate(-283.76 -177.04)"/><path class="cls-7" d="M888.27,563.45c23.86,28.87,56.35,66.68,49.26,106.85-6.74,38.93-44.21,58.35-85,85.73-60.64,40.68-55.26,87.82-94.85,84.76C704,836.66,661,828.05,647.37,787.12c-11.62-34.68,18-73.82,22.29-100.34,4.57-28.21-29.38,14.78-60.15-8.32-11.56-19.06-66.3-39.2-68.18-73.29-1.17-21.36,18.56-33.19,46.95-54.27,15-11.11,33.82-11.7,53.75-23.06,8.9-16.45,4.16-19.79,13.47-38.86,13.84-28.36,59.32-60.09,94.77-51.49,34.32,8.32,57.57,53.43,83.82,85.87C859,554.14,864.63,534.86,888.27,563.45Z" transform="translate(-283.76 -177.04)"/><path class="cls-8" d="M891.94,565.2c23.65,31.95,60.47,68.71,54.33,111-5.82,41.06-45.43,64.19-88.51,91.85-62.15,39.91-59.22,82.7-102.33,78.74-60.57-5.57-107.51-6.54-122.61-47.88-12.94-35.07,18.52-78.57,26-108.21,7.54-30-21.91,11.4-50.9-12.67-10.31-21.23-72.62-41.88-75.64-80.31-1.8-23,17.61-37.59,46.43-58.44,15.91-11.52,35.52-9.63,59.17-19.68,10.34-15.43,8.5-18.06,19.34-37.77,15.78-28.69,58.37-61.37,94.16-54.72,36.07,6.7,66.2,53.54,92.22,89.63C867.84,550.44,868.62,533.69,891.94,565.2Z" transform="translate(-283.76 -177.04)"/><path class="cls-9" d="M895.61,567C919,602,960.19,637.7,955,682.16c-4.89,43.2-46.63,70.06-92,98-63.65,39.15-63.19,77.55-109.82,72.7-67.5-7-118.29-.33-134.91-42.08-14.26-35.45,18.94-83.38,29.67-116.07,10.44-31.8-14.43,8-41.64-17-9.08-23.41-78.91-44.59-83.11-87.33-2.42-24.64,16.67-42,45.91-62.63,16.86-11.91,37.23-7.55,64.58-16.29,11.79-14.41,12.83-16.34,25.22-36.68,17.69-29,57.48-62.74,93.55-58,37.87,5,74.86,53.63,100.61,93.41C876.71,546.73,872.61,532.53,895.61,567Z" transform="translate(-283.76 -177.04)"/><path class="cls-10" d="M899.28,568.69c23.2,38.14,68.7,72.79,64.47,119.4-4,45.33-47.81,75.94-95.52,104.1-65.12,38.45-67.14,72.41-117.3,66.68-74.42-8.51-129,5.84-147.21-36.29-15.51-35.86,19.3-88.26,33.37-123.94,13.27-33.69-7,4.63-32.4-21.37-7.83-25.57-85.16-47.29-90.57-94.35-3-26.29,15.75-46.35,45.39-66.8,17.82-12.3,38.94-5.48,70-12.91,13.22-13.39,17.14-14.63,31.1-35.59,19.56-29.39,56.76-56.63,92.92-61.19,39.53-5,83.56,53.69,109,97.18C885.61,543,876.58,531.37,899.28,568.69Z" transform="translate(-283.76 -177.04)"/><path class="cls-11" d="M903,570.44c23,41.23,72.82,74.82,69.54,123.58-3,47.46-49,81.84-99,110.23-66.57,37.76-71.11,67.24-124.8,60.64-81.33-10-139.75,12-159.5-30.49-16.83-36.25,19.62-93.19,37.06-131.8,16.1-35.64.51,1.24-23.15-25.72-6.59-27.75-91.38-50-98-101.38-3.62-27.94,14.83-50.71,44.88-71,18.78-12.67,40.64-3.4,75.4-9.51,14.67-12.38,21.44-12.93,37-34.51,21.43-29.76,56.3-58,92.31-64.43C795.55,388.74,846.9,449.82,872,497,894.54,539.26,880.55,530.22,903,570.44Z" transform="translate(-283.76 -177.04)"/><path class="cls-12" d="M906.62,572.19c22.73,44.32,76.94,76.86,74.61,127.76-2.12,49.6-50.14,87.77-102.53,116.35-68,37.11-75.06,62.08-132.28,54.61-88.24-11.52-150.53,18.25-171.79-24.68-18.15-36.64,19.89-98.18,40.74-139.67,18.91-37.64,8-2.15-13.9-30.07-5.34-29.93-97.58-52.72-105.49-108.4-4.2-29.6,13.92-55.06,44.36-75.16,19.75-13.05,42.34-1.33,80.82-6.13,16.1-11.36,25.72-11.24,42.85-33.42,23.28-30.14,55.82-59.51,91.7-67.66,42.34-9.62,101,53.8,125.82,104.72C903.48,535.51,884.52,529.06,906.62,572.19Z" transform="translate(-283.76 -177.04)"/><path class="cls-13" d="M910.29,573.93c22.48,47.42,81.06,78.9,79.68,132-1.19,51.73-51.28,93.71-106,122.48-69.42,36.48-79,56.9-139.77,48.58C649,863.89,582.86,901.39,560.08,858.05c-19.47-37,20.16-103.2,44.43-147.54,21.72-39.66,15.46-5.53-4.65-34.42-4.1-32.09-103.77-55.44-112.95-115.42-4.78-31.25,13-59.39,43.84-79.34,20.73-13.41,44,.75,86.23-2.74,17.55-10.34,30-9.55,48.74-32.33C690.83,415.72,721,385,756.79,375.37,800.56,363.53,866.58,429.21,891,483.86,912.44,531.76,888.48,527.91,910.29,573.93Z" transform="translate(-283.76 -177.04)"/><path class="cls-14" d="M914,575.68c22.23,50.52,85.16,80.93,84.74,136.13-.27,53.87-52.42,99.67-109.53,128.61-70.83,35.87-83,51.72-147.26,42.54-102.06-14.58-172.09,30.65-196.39-13.09-20.79-37.41,20.42-108.25,48.13-155.4,24.52-41.72,22.92-8.92,4.59-38.77-2.85-34.27-109.94-58.18-120.41-122.44-5.36-32.92,12.13-63.72,43.33-83.52,21.7-13.78,45.75,2.82,91.63.64,19-9.32,34.27-7.88,54.62-31.24,27-30.95,54.71-63.07,90.46-74.13,45.22-14,118.57,53.89,142.63,112.27C921.42,528,892.44,526.76,914,575.68Z" transform="translate(-283.76 -177.04)"/><path class="cls-15" d="M917.64,577.42c22,53.62,89.28,83,89.81,140.32.66,56-53.54,105.66-113,134.73C822.19,887.76,807.49,899,739.67,889c-109-16.12-182.87,36.86-208.69-7.29-22.11-37.8,20.66-113.33,51.82-163.26,27.33-43.8,30.4-12.31,13.84-43.13C595,638.86,480.53,614.4,468.77,545.84c-5.94-34.58,11.24-68,42.81-87.69,22.68-14.13,47.45,4.89,97.05,4,20.43-8.3,38.53-6.22,60.49-30.15,28.78-31.37,52.34-72.38,89.85-77.36,49-6.5,127.37,53.93,151,116C930.41,524.27,896.39,525.6,917.64,577.42Z" transform="translate(-283.76 -177.04)"/><path class="cls-16" d="M921.31,579.17c21.72,56.72,93.4,85,94.88,144.51,1.58,58.12-54.66,111.65-116.54,140.85C826,899.26,808.77,905.9,737.42,895c-115.87-17.68-193.73,43.11-221-1.5-23.51-38.14,20.91-118.43,55.51-171.13,30.14-45.89,37.87-15.69,23.1-47.47-.37-38.61-122.27-63.64-135.34-136.49-6.51-36.24,10.36-72.35,42.29-91.87,23.67-14.47,55.32,32.29,102.46,7.41,20.39-10.76,42.79-4.56,66.37-29.06,30.6-31.8,51.46-74.16,89.24-80.59,50.76-8.65,136.18,54,159.43,119.8C939.41,520.52,900.34,524.45,921.31,579.17Z" transform="translate(-283.76 -177.04)"/><path class="cls-17" d="M925,580.92c21.47,59.81,97.52,87,99.94,148.69,2.52,60.26-55.77,117.67-120,147-75,34.19-94.82,36.19-169.72,24.45-122.76-19.24-204.5,49.32-233.28,4.3-24.83-38.52,21.15-123.55,59.21-179,32.95-48,45.34-19.08,32.34-51.82C594.3,633.73,465,608.13,450.63,531c-7.08-37.91,9.47-76.66,41.77-96.05,24.67-14.82,55.53,33.44,107.88,10.79,22.16-9.59,47-2.91,72.25-28,32.41-32.24,50.55-76,88.61-83.83,52.56-10.85,145,54,167.83,123.58C948.42,516.78,904.29,523.29,925,580.92Z" transform="translate(-283.76 -177.04)"/><path class="cls-18" d="M928.65,582.66c21.21,62.91,101.64,89.09,105,152.88,3.44,62.39-56.87,123.71-123.54,153.1-76.37,33.66-98.77,31-177.21,18.42-129.66-20.81-215.28,55.52-245.58,10.09-26.15-38.9,21.4-128.68,62.9-186.85C586,680.15,603,707.84,591.82,674.12c2.12-43-134.54-69.13-150.26-150.53-7.65-39.57,8.6-81,41.26-100.23,25.65-15.14,55.92,34.32,113.28,14.18,23.88-8.39,51.3-1.27,78.13-26.89,34.23-32.67,49.62-77.79,88-87,54.31-13.1,153.84,54.07,176.23,127.34C957.44,513,908.24,522.14,928.65,582.66Z" transform="translate(-283.76 -177.04)"/><path class="cls-19" d="M932.32,584.41c20.95,66,105.75,91.12,110.08,157.06,4.37,64.52-58,129.77-127.05,159.22-77.74,33.16-102.71,25.82-184.69,12.39C594.1,890.71,504.6,974.81,472.78,929c-27.46-39.29,21.64-133.82,66.59-194.72C578,682,593.65,709.5,590.21,673.73c-4.33-45.05-140.67-71.88-157.73-157.56-8.2-41.24,7.73-85.24,40.75-104.4,26.65-15.47,56.52,35,118.7,17.56,25.55-7.16,55.54.36,84-25.8,36.05-33.13,48.68-79.65,87.39-90.29,56-15.4,162.69,54.12,184.63,131.12C966.46,509.3,912.19,521,932.32,584.41Z" transform="translate(-283.76 -177.04)"/><path class="cls-20" d="M936,586.16c20.69,69.1,109.87,93.15,115.15,161.24,5.29,66.66-59.07,135.84-130.55,165.35-79.11,32.66-106.66,20.63-192.18,6.35C585,895.16,491.57,987,458.23,940.79c-28.78-39.67,21.88-139,70.29-202.58,41.42-54.43,62.18-28.48,60.08-64.88-2.73-47.44-146.8-74.62-165.19-164.57-8.77-42.91,6.86-89.53,40.23-108.59,27.65-15.79,57.31,35.48,124.11,20.95,27.2-5.91,59.79,2,89.88-24.71,37.86-33.59,47.71-81.52,86.77-93.52,57.73-17.74,171.55,54.17,193,134.89C975.49,505.56,916.13,519.83,936,586.16Z" transform="translate(-283.76 -177.04)"/><path class="cls-21" d="M939.66,587.9c20.42,72.2,114,95.2,120.22,165.43,6.21,68.79-60.17,141.93-134.06,171.48-80.48,32.18-110.6,15.43-199.66.32-150.35-25.52-247.62,74.14-282.48,27.48-30.1-40.05,22.13-144.14,74-210.45C561.91,685.58,587.77,710,587,672.94c-1-49.81-152.92-77.38-172.65-171.6-9.33-44.58,6-93.8,39.71-112.76,28.66-16.1,58.28,35.86,129.52,24.33,28.8-4.66,64,3.62,95.77-23.62,39.67-34.06,46.72-83.4,86.15-96.75,59.38-20.11,180.4,54.22,201.44,138.65C984.53,501.83,920.07,518.67,939.66,587.9Z" transform="translate(-283.76 -177.04)"/><path class="cls-22" d="M943.33,589.65c20.16,75.29,118.11,97.23,125.29,169.61,7.14,70.93-61.26,148-137.56,177.6-81.85,31.71-114.55,10.25-207.16-5.71-157.23-27.1-258.39,80.35-294.77,33.28C397.71,924,451.5,815.12,506.8,746.12c47.09-58.75,78.07-35.78,78.59-73.57.71-52.13-159-80.14-180.12-178.62-9.9-46.26,5.11-98.09,39.2-116.95,29.65-16.4,59.4,36.17,134.93,27.72,30.36-3.4,68.29,5.24,101.64-22.53,41.49-34.53,45.71-85.29,85.54-100,61-22.51,189.27,54.29,209.84,142.43C993.57,498.1,924,517.52,943.33,589.65Z" transform="translate(-283.76 -177.04)"/><path class="cls-23" d="M947,591.39c19.9,78.39,122.23,99.27,130.36,173.8,8.06,73.06-62.35,154.16-141.06,183.73-83.23,31.25-118.5,5.05-214.65-11.75-164.12-28.67-269.17,86.56-307.07,39.08C381.84,935.43,437.2,821.77,496,750.08c49.92-60.93,86-39.36,87.83-77.93,2.53-54.4-165.15-82.89-187.58-185.64-10.46-47.93,4.24-102.35,38.68-121.12,30.66-16.71,60.69,36.42,140.34,31.1,31.91-2.13,72.54,6.85,107.52-21.44,43.3-35,44.67-87.18,84.93-103.22,62.6-24.94,198.14,54.34,218.24,146.2C1002.61,494.37,928,516.36,947,591.39Z" transform="translate(-283.76 -177.04)"/><path class="cls-24" d="M950.67,593.14c19.63,81.48,126.34,101.3,135.43,178,9,75.19-63.44,160.3-144.57,189.85-84.59,30.82-122.44-.13-222.13-17.77C548.38,912.94,439.46,1036,400,988.07,366,946.87,422.9,828.41,485.09,754c52.76-63.09,94-42.89,97.08-82.27,4.4-56.64-171.26-85.65-195-192.67-11-49.6,3.37-106.62,38.16-125.29,31.68-17,62.34,27.91,145.76,34.48,33.32,2.63,76.78,8.46,113.39-20.35,45.12-35.49,43.62-89.09,84.31-106.45,64.18-27.39,207,54.4,226.65,150C1011.66,490.65,931.9,515.2,950.67,593.14Z" transform="translate(-283.76 -177.04)"/><path class="cls-25" d="M954.34,594.89c19.22,84.61,130.46,103.34,140.5,182.16,9.91,77.33-64.52,166.45-148.07,196-86,30.38-126.39-5.33-229.62-23.81-177.91-31.85-290.72,99-331.67,50.67C350.1,958.31,408.6,835,474.23,758c55.6-65.28,102-46.38,106.33-86.63,6.32-58.82-177.36-88.4-202.5-199.68-11.58-51.28,2.5-110.89,37.65-129.48,32.68-17.29,64.05,29.37,151.16,37.87,34.75,3.4,81,10.07,119.28-19.26,46.93-36,42.54-91,83.69-109.69,65.71-29.86,215.9,54.48,235,153.74C1020.71,486.92,935.7,514.08,954.34,594.89Z" transform="translate(-283.76 -177.04)"/><path class="cls-26" d="M958,596.63C977,684.33,1092.59,702,1103.58,783,1114.42,862.44,1038,955.6,952,985.08c-87.33,30-130.33-10.52-237.1-29.84-184.8-33.43-301.5,105.18-344,56.47-36.7-42,23.37-170,92.45-249.76,58.44-67.46,110-49.82,115.57-91,8.26-61-183.46-91.17-210-206.71-12.15-52.95,1.64-115.15,37.13-133.65,33.7-17.57,65.8,30.81,156.58,41.25C598.87,376,648,383.53,687.85,353.69c48.75-36.47,41.46-92.9,83.08-112.92,67.22-32.34,224.78,54.54,243.44,157.51C1029.76,483.2,939.66,512.91,958,596.63Z" transform="translate(-283.76 -177.04)"/><path class="cls-27" d="M961.68,598.38c18.73,90.78,138.7,107.41,150.64,190.53,11.76,81.59-66.69,178.8-155.08,208.23-88.71,29.54-134.23-15.93-244.6-35.87C521,925.86,400.37,1072.65,356.38,1023.54c-38-42.36,23.62-175.24,96.14-257.64,61.29-69.64,118-53.21,124.82-95.32,10.24-63.09-189.56-93.93-217.42-213.73-12.71-54.64.77-119.41,36.61-137.84,34.72-17.84,67.56,32.27,162,44.65,37.63,4.93,89.52,13.26,131-17.09,50.57-37,40.35-94.8,82.46-116.16,68.71-34.83,233.68,54.62,251.85,161.29C1038.82,479.49,943.62,511.75,961.68,598.38Z" transform="translate(-283.76 -177.04)"/><path class="cls-28" d="M965.35,600.13c18.48,93.86,142.82,109.45,155.71,194.71,12.69,83.73-67.77,185-158.59,214.36-90.08,29.13-138.18-21.08-252.08-41.91-198.52-36.9-323,117.59-368.56,68.07-39.34-42.74,23.88-180.43,99.83-265.5,64.14-71.84,126-56.58,134.07-99.68C588,605,380.07,573.49,350.85,449.43c-13.27-56.31-.1-123.66,36.09-142,35.74-18.12,69.33,33.72,167.41,48,39.08,5.7,93.76,14.86,136.91-16,52.38-37.46,39.22-96.71,81.84-119.39,70.17-37.34,242.57,54.68,260.25,165.05C1047.88,475.77,947.58,510.58,965.35,600.13Z" transform="translate(-283.76 -177.04)"/><path class="cls-29" d="M969,601.87c18.24,97,146.93,111.49,160.77,198.9C1143.41,886.63,1061,992,967.71,1021.25,876.25,1050,825.57,995,708.14,973.32c-205.42-38.4-333.83,123.79-380.86,73.86-40.66-43.12,24.13-185.63,103.52-273.37,67-74,134-59.91,143.33-104C588.36,602.58,372.62,570.27,341.78,442c-13.71-58-1-127.91,35.58-146.19,36.75-18.38,71.11,35.18,172.81,51.42,40.55,6.47,98,16.45,142.79-14.91,54.2-37.95,38.09-98.61,81.23-122.62,71.6-39.86,251.46,54.75,268.65,168.82C1056.94,472.06,951.54,509.42,969,601.87Z" transform="translate(-283.76 -177.04)"/><path class="cls-30" d="M972.69,603.62c18,100,151,113.52,165.84,203.09,14.55,88-69.92,197.39-165.58,226.6-92.84,28.34-146.09-31.35-267.06-54-212.33-39.9-344.61,130-393.16,79.66C270.75,1015.49,337,868,420,777.77c69.71-76.34,142-63.21,152.57-108.38,16.25-69.21-207.73-102.25-239.81-234.79-14.33-59.68-1.83-132.16,35.06-150.37C405.55,265.59,440.69,320.87,546,339c42,7.25,102.21,18,148.67-13.82,56-38.54,36.94-100.51,80.62-125.86,73-42.37,260.47,54.82,277,172.6C1066.09,468.33,955.5,508.25,972.69,603.62Z" transform="translate(-283.76 -177.04)"/><path class="cls-1" d="M696.36,318.09c57.84-39,35.78-102.41,80-129.09,74.42-44.9,269.26,54.91,285.46,176.36,13.24,99.27-102.36,141.73-85.46,240,17.75,103.13,155.17,115.57,170.91,207.28,15.47,90.12-71,203.62-169.09,232.72-94.21,28-150-36.49-274.54-60C484.4,944,348.25,1121.57,298.18,1070.82c-43.29-43.89,24.65-196,110.91-289.09C481.78,703.31,559,715.25,570.91,669,589.19,597.8,357,564,323.64,427.18c-14.95-61.34-2.7-136.41,34.54-154.54,38.81-18.9,74.73,38.1,183.64,58.18C585.33,338.84,648.32,350.46,696.36,318.09Z" transform="translate(-283.76 -177.04)"/></svg>