<svg id="Layer_1" data-name="Layer 1" xmlns="http://www.w3.org/2000/svg" viewBox="0 0 1957.79 2027.03"><defs><style>.cls-1,.cls-10,.cls-11,.cls-12,.cls-13,.cls-14,.cls-15,.cls-16,.cls-17,.cls-18,.cls-19,.cls-2,.cls-20,.cls-21,.cls-22,.cls-23,.cls-24,.cls-25,.cls-26,.cls-27,.cls-28,.cls-29,.cls-3,.cls-30,.cls-31,.cls-32,.cls-33,.cls-34,.cls-35,.cls-36,.cls-37,.cls-4,.cls-5,.cls-6,.cls-7,.cls-8,.cls-9{fill:none;stroke-miterlimit:10;stroke-width:5px;}.cls-1{stroke:#fff;}.cls-2{stroke:#fffbfa;}.cls-3{stroke:#fff8f4;}.cls-4{stroke:#fff4ef;}.cls-5{stroke:#fff1ea;}.cls-6{stroke:#ffede4;}.cls-7{stroke:#ffeadf;}.cls-8{stroke:#ffe6d9;}.cls-9{stroke:#ffe3d4;}.cls-10{stroke:#ffdfcf;}.cls-11{stroke:#ffdbc9;}.cls-12{stroke:#ffd8c4;}.cls-13{stroke:#ffd4bf;}.cls-14{stroke:#ffd1b9;}.cls-15{stroke:#ffcdb4;}.cls-16{stroke:#ffcaaf;}.cls-17{stroke:#ffc6a9;}.cls-18{stroke:#ffc3a4;}.cls-19{stroke:#ffbf9f;}.cls-20{stroke:#fb9;}.cls-21{stroke:#ffb894;}.cls-22{stroke:#ffb48e;}.cls-23{stroke:#ffb189;}.cls-24{stroke:#ffad84;}.cls-25{stroke:#ffaa7e;}.cls-26{stroke:#ffa679;}.cls-27{stroke:#ffa374;}.cls-28{stroke:#ff9f6e;}.cls-29{stroke:#ff9b69;}.cls-30{stroke:#ff9864;}.cls-31{stroke:#ff945e;}.cls-32{stroke:#ff9159;}.cls-33{stroke:#ff8d53;}.cls-34{stroke:#ff8a4e;}.cls-35{stroke:#ff8649;}.cls-36{stroke:#ff8343;}.cls-37{stroke:#ff7f3e;}</style></defs><path class="cls-1" d="M-20.4,27c2.87,8.4,10.48,13.83,17.63,13.49,8.22-.39,6-20.16,15.86-23.61,9.16-3.22,17.47,10.33,26.45,8.43C46.17,23.88,53.31,14,56.28-21.95" transform="translate(77.85 157.59)"/><path class="cls-2" d="M-21.94,78.12C-16,79.07,1.1,88,9,83.71c12.27-6.64,19.39-24.35,28.22-28.87a9.52,9.52,0,0,0,3.48-3c2.44-3.25,4.05-4.87,8.14-5.13,7.08-.44,18.72,6.83,27.31,1.94s7.31-17.1,13.61-39.57a99.42,99.42,0,0,1,17.17-34.71" transform="translate(77.85 157.59)"/><path class="cls-3" d="M-23.47,129.27c9-6.51,35.45,4.86,44.23-2.32,17.12-14,33-31.79,43.29-35.7a6.26,6.26,0,0,0,4.24-4.45c1.63-5,1.45-9.71,6.37-12,8.72-4,26.49,5.5,38.09-2.87,12.5-9,5-28,14-57.2,3.86-12.38,11.48-28.24,30.79-44.14" transform="translate(77.85 157.59)"/><path class="cls-4" d="M-25,180.42c12-14,47.67-.29,57.52-10.22,21.58-21.75,46.71-39,58.37-42.54,3.59-1.09,4.55-2.86,5-5.89,1-6.62-1.14-14.56,4.62-18.75,10.33-7.53,34.21,4.13,48.85-7.69C165.68,82.15,152,56.48,163.79,20.5c5.06-15.33,15.87-35,44.4-53.56" transform="translate(77.85 157.59)"/><path class="cls-5" d="M-26.53,231.58c15-21.43,59.8-5.48,70.82-18.14,25.78-29.63,60.43-46.11,73.44-49.37,4.57-1.15,5.58-3.37,5.75-7.32.35-8.33-3.76-19.43,2.85-25.57,11.93-11.1,41.92,2.75,59.63-12.5,20.14-17.35.31-49.73,14.86-92.47,6.25-18.27,20.26-41.69,58-63" transform="translate(77.85 157.59)"/><path class="cls-6" d="M-28.06,282.73c18-28.88,71.89-10.65,84.11-26,29.85-37.57,74.17-53.17,88.51-56.21,5.56-1.18,6.64-3.89,6.52-8.75-.25-10.06-6.38-24.29,1.09-32.39,13.5-14.67,49.62,1.37,70.39-17.31,23.94-21.52-2-60.6,15.28-110.1,7.45-21.21,24.65-48.42,71.62-72.39" transform="translate(77.85 157.59)"/><path class="cls-7" d="M-29.6,333.88c21.09-36.34,84-15.81,97.42-33.95,33.81-45.52,87.89-60.2,103.58-63,6.54-1.19,7.68-4.42,7.27-10.19-.83-11.8-9-29.14-.67-39.2,15.09-18.24,57.32,0,81.17-22.12,27.72-25.7-4.36-71.48,15.69-127.73,8.65-24.16,29.05-55.15,85.24-81.81" transform="translate(77.85 157.59)"/><path class="cls-8" d="M-31.13,385c24.13-43.79,96-21,110.71-41.85C117.3,289.69,181.2,276,198.24,273.3c7.52-1.18,8.73-4.94,8-11.62-1.43-13.56-11.62-34-2.44-46,16.67-21.81,65-1.39,91.95-26.93,31.5-29.88-6.7-82.36,16.1-145.37,9.85-27.1,33.44-61.88,98.85-91.22" transform="translate(77.85 157.59)"/><path class="cls-9" d="M-32.66,436.18c27.16-51.25,108-26.12,124-49.75,41.59-61.46,115.32-74.22,133.73-76.72,8.51-1.16,9.79-5.48,8.79-13.06-2-15.31-14.24-38.86-4.2-52.83,18.23-25.38,72.7-2.77,102.71-31.74,35.29-34.06-9-93.23,16.53-163,11-30,37.83-68.61,112.46-100.65" transform="translate(77.85 157.59)"/><path class="cls-10" d="M-34.19,487.34c30.19-58.71,120-31.28,137.31-57.67,45.42-69.43,129-81.2,148.8-83.55,9.49-1.12,10.84-6,9.54-14.49-2.6-17.08-16.86-43.72-6-59.65C275.31,243,335.89,267.83,369,235.43c39.07-38.25-11.37-104.11,16.94-180.63,12.23-33,42.22-75.34,126.08-110.07" transform="translate(77.85 157.59)"/><path class="cls-11" d="M-35.72,538.49c33.22-66.17,132.05-36.42,150.6-65.57,49.25-77.41,142.72-88.2,163.87-90.39,10.48-1.08,11.9-6.54,10.31-15.92-3.19-18.85-19.49-48.58-7.72-66.47,21.38-32.51,88.07-5.53,124.25-41.36,42.85-42.43-13.69-115,17.36-198.27C436.38,24.58,469.57-21.55,562.64-59" transform="translate(77.85 157.59)"/><path class="cls-12" d="M-37.26,589.64C-1,516,106.81,548.08,126.65,516.16c53-85.37,156.41-95.17,178.94-97.22,11.46-1,13-7.08,11.07-17.36-3.78-20.61-22.11-53.43-9.49-73.28,22.95-36.07,95.77-6.91,135-46.17,46.63-46.61-16-125.86,17.77-215.9,14.63-38.87,51-88.79,153.31-128.9" transform="translate(77.85 157.59)"/><path class="cls-13" d="M-38.79,640.79c39.3-81.08,156.08-46.7,177.2-81.38,56.85-93.35,170.1-102.16,194-104.06,12.44-1,14-7.62,11.83-18.79-4.38-22.39-24.74-58.29-11.25-80.1,24.52-39.63,103.45-8.3,145.79-51C529.21,254.68,460.44,168.75,497,72c15.82-41.82,55.4-95.53,166.91-138.32" transform="translate(77.85 157.59)"/><path class="cls-14" d="M-40.32,692C2,603.41,127.76,640.1,150.18,602.65,210.81,501.34,334,493.52,359.27,491.76c13.41-.93,15.06-8.15,12.58-20.23-5-24.15-27.36-63.14-13-86.91,26.09-43.2,111.14-9.68,156.57-55.79,54.18-55-20.7-147.61,18.61-251.17C551,32.9,593.81-24.59,714.55-70.07" transform="translate(77.85 157.59)"/><path class="cls-15" d="M-41.85,743.1c45.37-96,180.09-57,203.79-97.2,64.42-109.29,197.47-116.1,224.17-117.72,14.39-.88,16.12-8.7,13.34-21.67-5.55-25.93-30-68-14.77-93.72C412.34,366,503.5,401.72,552,352.18c58-59.17-23-158.49,19-268.8,18.22-47.7,64.19-109,194.14-157.16" transform="translate(77.85 157.59)"/><path class="cls-16" d="M-43.38,794.25C5,690.8,148.71,732.14,173.71,689.14,241.9,571.89,384.85,566.07,412.94,564.59c15.38-.81,17.18-9.24,14.11-23.1-6.14-27.71-32.61-72.86-16.54-100.54C439.74,390.61,537,428.5,588.62,375.53c61.73-63.35-25.37-169.36,19.45-286.43C627.48,38.45,676.64-26.61,815.82-77.48" transform="translate(77.85 157.59)"/><path class="cls-17" d="M-44.91,845.4c51.43-110.91,204.09-67.25,230.38-113,72-125.23,224.82-130,254.31-131.39,16.35-.75,18.23-9.77,14.86-24.54-6.72-29.47-35.29-77.74-18.29-107.35,30.69-54,134.18-13.83,188.88-70.22,65.51-67.55-27.7-180.25,19.86-304.08,20.61-53.59,73-122.43,221.37-176" transform="translate(77.85 157.59)"/><path class="cls-18" d="M-46.45,896.55C8,778.19,169.65,824.17,197.24,775.63c75.72-133.19,238.49-137,269.38-138.22,17.33-.68,19.29-10.31,15.62-26-7.31-31.25-37.92-82.6-20.06-114.17,32.27-57.52,141.87-15.22,199.65-75,69.29-71.73-30-191.12,20.28-321.71C703.92,44,759.47-28.63,917.09-84.88" transform="translate(77.85 157.59)"/><path class="cls-19" d="M-48,947.71C9.53,821.88,180.11,870.19,209,818.88c79.48-141.16,252.15-144,284.45-145.06,18.3-.61,20.34-10.85,16.38-27.41-7.91-33-40.54-87.45-21.83-121,33.85-61.08,149.56-16.6,210.43-79.84,73.06-75.92-32.37-202,20.69-339.34,23-59.48,81.76-135.9,248.6-194.83" transform="translate(77.85 157.59)"/><path class="cls-20" d="M-49.51,998.86C11,865.58,190.58,916.21,220.77,862.13,304,713,486.6,711.17,520.3,710.23c19.28-.54,21.39-11.39,17.14-28.84-8.5-34.8-43.17-92.31-23.59-127.8,35.42-64.64,157.24-18,221.19-84.65,76.84-80.11-34.7-212.87,21.12-357,24.2-62.42,86.15-142.62,262.2-204.24" transform="translate(77.85 157.59)"/><path class="cls-21" d="M-51,1050c63.57-140.74,252.09-87.78,283.58-144.64,87-157.1,279.49-157.92,314.59-158.73,20.26-.47,22.46-11.93,17.9-30.27-9.08-36.58-45.78-97.16-25.35-134.62,37-68.2,164.93-19.36,232-89.46,80.61-84.29-37-223.75,21.53-374.61C818.58,52.32,883.72-31.67,1069-96" transform="translate(77.85 157.59)"/><path class="cls-22" d="M-52.57,1101.16C14,953,211.51,1008.26,244.3,948.62,335.06,783.55,537.47,783.73,574,783.05c21.24-.39,23.51-12.47,18.66-31.71-9.67-38.35-48.41-102-27.11-141.43,38.56-71.76,172.61-20.75,242.73-94.27,84.38-88.48-39.37-234.63,22-392.24,26.6-68.31,94.94-156.08,289.43-223.09" transform="translate(77.85 157.59)"/><path class="cls-23" d="M-54.11,1152.32c69.65-155.66,276.09-98,310.18-160.46,94.5-173,306.83-171.86,344.74-172.4,22.21-.32,24.56-13,19.42-33.14-10.26-40.14-51-106.87-28.88-148.25C631.49,562.75,771.5,615.8,844.86,539c88-92.83-41.71-245.5,22.37-409.88,27.79-71.25,99.32-162.8,303-232.5" transform="translate(77.85 157.59)"/><path class="cls-24" d="M-55.64,1203.47C17,1040.36,232.44,1100.3,267.83,1035.11c98.26-181,320.5-178.83,359.82-179.24,23.18-.24,25.62-13.54,20.17-34.58C637,779.38,594.17,709.57,617.19,666.23,658.9,587.35,805,642.59,881.47,562.34c91.76-97-44-256.38,22.78-427.51,29-74.19,103.72-169.53,316.66-241.92" transform="translate(77.85 157.59)"/><path class="cls-25" d="M-57.17,1254.62c75.72-170.57,300.08-108.3,336.77-176.27,102-189,334.16-185.79,374.89-186.07,24.15-.16,26.67-14.08,20.93-36C664,812.58,619.15,739.69,643,694.4c43.29-82.45,195.54-25,275.05-108.71,95.55-101.18-46.37-267.25,23.2-445.14,30.19-77.14,108.11-176.27,330.27-251.34" transform="translate(77.85 157.59)"/><path class="cls-26" d="M-58.7,1305.77c78.75-178,312.07-113.42,350.07-184.17,105.75-196.94,347.81-192.76,390-192.91,25.14-.08,27.74-14.62,21.7-37.44-12-45.47-58.9-121.43-34.16-168.69,44.86-86,203.22-26.39,285.82-113.52C1054,503.69,906,330.91,978.29,146.26c31.39-80.08,112.51-183,343.89-260.75" transform="translate(77.85 157.59)"/><path class="cls-27" d="M-60.23,1356.92c81.78-185.48,324.07-118.55,363.36-192.08,109.5-204.9,361.48-199.72,405-199.74,26.11,0,28.79-15.16,22.45-38.88C718,879,669.09,799.94,694.69,750.72,741.13,661.16,905.61,723,991.28,632.39c103.12-109.52-51-289,24-480.41,32.58-83,116.89-189.72,357.49-270.18" transform="translate(77.85 157.59)"/><path class="cls-28" d="M-61.77,1408.08c84.82-192.94,336.07-123.69,376.67-200C428.14,995.22,690,1001.4,735,1001.52c27.08.07,29.84-15.71,23.21-40.32-13.21-49-64.14-131.14-37.68-182.32,48-93.12,218.61-29.14,307.36-123.14,106.91-113.7-53.38-299.88,24.45-498,33.78-86,121.29-196.45,371.11-279.6" transform="translate(77.85 157.59)"/><path class="cls-29" d="M-63.3,1459.23c87.86-200.4,348.06-128.81,390-207.9,117-220.83,388.8-213.65,435.18-213.4,28,.15,30.9-16.25,24-41.76C772,945.38,719,860.18,746.36,807c49.59-96.68,226.31-30.51,318.13-127.95,110.7-117.87-55.71-310.76,24.87-515.68,35-88.91,125.68-203.17,384.72-289" transform="translate(77.85 157.59)"/><path class="cls-30" d="M-64.83,1510.38c90.89-207.85,360.06-133.94,403.26-215.8,120.74-228.8,402.46-220.62,450.25-220.24,29,.23,32-16.79,24.73-43.19C799,978.57,744,890.3,772.19,835.2c51.17-100.24,234-31.88,328.91-132.76,114.48-122-58-321.63,25.29-533.31,36.16-91.85,130.07-209.91,398.33-298.43" transform="translate(77.85 157.59)"/><path class="cls-31" d="M-66.36,1561.53c93.92-215.31,372.05-139.06,416.55-223.7,124.49-236.77,416.12-227.59,465.32-227.08,30,.31,33-17.33,25.49-44.62-15-54.36-72-145.7-43-202.77,52.74-103.8,241.7-33.26,339.67-137.57,118.27-126.22-60.37-332.51,25.71-550.94,37.36-94.8,134.46-216.64,411.95-307.85" transform="translate(77.85 157.59)"/><path class="cls-32" d="M-67.89,1612.69c97-222.77,384-144.2,429.85-231.62,128.23-244.73,429.78-234.55,480.39-233.91,31,.39,34.11-17.88,26.25-46.06-15.47-56.16-74.63-150.55-44.74-209.58,54.31-107.36,249.39-34.63,350.45-142.38,122-130.39-62.71-343.38,26.12-568.58C1239,82.82,1339.29-42.8,1626-136.7" transform="translate(77.85 157.59)"/><path class="cls-33" d="M-69.43,1663.84c100-230.23,396.05-149.32,443.15-239.52,132-252.69,443.44-241.52,495.47-240.75,31.95.47,35.16-18.42,27-47.49-16.08-57.93-77.26-155.41-46.5-216.4,55.88-110.92,257.08-36,361.22-147.19,125.83-134.57-65.05-354.26,26.53-586.21C1277.21,85.6,1380.7-43.81,1676.63-140.41" transform="translate(77.85 157.59)"/><path class="cls-34" d="M-71,1715c103-237.68,407.9-154.52,456.45-247.43C520.8,1206.7,842.59,1219.08,896,1220c32.92.55,36.2-19,27.76-48.93-16.68-59.7-79.87-160.26-48.26-223.21,57.46-114.48,264.78-37.37,372-152,129.62-138.74-67.38-365.13,27-603.84,41-103.63,147.64-236.82,452.78-336.11" transform="translate(77.85 157.59)"/><path class="cls-35" d="M-72.49,1766.14C33.58,1521,347.45,1606.52,397.26,1510.81,536.44,1242.05,868,1255.36,922.87,1256.39c33.89.64,37.25-19.49,28.52-50.36-17.29-61.48-82.5-165.11-50-230,59-118,272.47-38.75,382.76-156.82,133.4-142.91-69.72-376,27.37-621.48,42.15-106.57,152-243.54,466.4-345.52" transform="translate(77.85 157.59)"/><path class="cls-36" d="M-74,1817.29c109.1-252.59,432-164.72,483-263.24C552.08,1277.4,893.43,1291.71,949.7,1292.8c34.87.76,38.3-20,29.29-51.79-17.9-63.26-85.12-170-51.79-236.84,60.61-121.61,280.17-40.13,393.53-161.63,137.2-147.09-72-386.89,27.79-639.11,43.35-109.51,156.43-250.28,480-354.94" transform="translate(77.85 157.59)"/><path class="cls-37" d="M-75.55,1868.45c112.13-260.06,444-169.83,496.34-271.15,146.94-284.55,498.06-269.38,555.75-268.09,107.19,2.4-74.88-193.47-23.5-296.88,62.18-125.17,287.85-41.5,404.3-166.44,141-151.26-74.38-397.76,28.21-656.74,44.54-112.46,160.81-257,493.62-364.36" transform="translate(77.85 157.59)"/></svg>